solid Mesh
facet normal 0 -0.000499964 0
outer loop
vertex 0.5 -0.5 0.000249922
vertex -0.5 -0.5 0.000249922
vertex -0.5 -0.5 -0.000250041
endloop
endfacet
facet normal 0 -0.000499964 0
outer loop
vertex 0.5 -0.5 0.000249922
vertex -0.5 -0.5 -0.000250041
vertex 0.5 -0.5 -0.000250041
endloop
endfacet
facet normal 0.000499964 0 0
outer loop
vertex 0.5 0.5 0.000249922
vertex 0.5 -0.5 0.000249922
vertex 0.5 -0.5 -0.000250041
endloop
endfacet
facet normal 0.000499964 0 0
outer loop
vertex 0.5 0.5 0.000249922
vertex 0.5 -0.5 -0.000250041
vertex 0.5 0.5 -0.000250041
endloop
endfacet
facet normal 0 0.000499964 0
outer loop
vertex -0.5 0.5 0.000249922
vertex 0.5 0.5 0.000249922
vertex 0.5 0.5 -0.000250041
endloop
endfacet
facet normal 0 0.000499964 0
outer loop
vertex -0.5 0.5 0.000249922
vertex 0.5 0.5 -0.000250041
vertex -0.5 0.5 -0.000250041
endloop
endfacet
facet normal -0.000499964 0 0
outer loop
vertex -0.5 0.5 -0.000250041
vertex -0.5 -0.5 0.000249922
vertex -0.5 0.5 0.000249922
endloop
endfacet
facet normal 0 0 -1
outer loop
vertex 0.5 0.5 -0.000250041
vertex -0.5 -0.5 -0.000250041
vertex -0.5 0.5 -0.000250041
endloop
endfacet
facet normal 0 0 1
outer loop
vertex -0.5 0.5 0.000249922
vertex 0.5 -0.5 0.000249922
vertex 0.5 0.5 0.000249922
endloop
endfacet
facet normal 0 0 -1
outer loop
vertex 0.5 0.5 -0.000250041
vertex 0.5 -0.5 -0.000250041
vertex -0.5 -0.5 -0.000250041
endloop
endfacet
facet normal -0.000499964 0 0
outer loop
vertex -0.5 0.5 -0.000250041
vertex -0.5 -0.5 -0.000250041
vertex -0.5 -0.5 0.000249922
endloop
endfacet
facet normal 0 0 1
outer loop
vertex -0.5 0.5 0.000249922
vertex -0.5 -0.5 0.000249922
vertex 0.5 -0.5 0.000249922
endloop
endfacet
endsolid Mesh
